<?xml version="1.0" encoding="UTF-8" standalone="no"?>
<svg
   xmlns:ns0="http://www.iki.fi/pav/software/textext/"
   xmlns:dc="http://purl.org/dc/elements/1.1/"
   xmlns:cc="http://creativecommons.org/ns#"
   xmlns:rdf="http://www.w3.org/1999/02/22-rdf-syntax-ns#"
   xmlns:svg="http://www.w3.org/2000/svg"
   xmlns="http://www.w3.org/2000/svg"
   xmlns:sodipodi="http://sodipodi.sourceforge.net/DTD/sodipodi-0.dtd"
   xmlns:inkscape="http://www.inkscape.org/namespaces/inkscape"
   width="335.33423pt"
   height="190.65384pt"
   viewBox="0 0 335.33423 190.65383"
   version="1.1"
   id="svg3336"
   inkscape:version="0.91 r13725"
   sodipodi:docname="bias_correction_graph.svg">
  <sodipodi:namedview
     pagecolor="#ffffff"
     bordercolor="#666666"
     borderopacity="1"
     objecttolerance="10"
     gridtolerance="10"
     guidetolerance="10"
     inkscape:pageopacity="0"
     inkscape:pageshadow="2"
     inkscape:window-width="1920"
     inkscape:window-height="1031"
     id="namedview3357"
     showgrid="false"
     inkscape:zoom="1.6754502"
     inkscape:cx="246.63241"
     inkscape:cy="192.30044"
     inkscape:window-x="0"
     inkscape:window-y="25"
     inkscape:window-maximized="1"
     inkscape:current-layer="svg3336"
     fit-margin-top="10"
     fit-margin-left="10"
     fit-margin-right="10"
     fit-margin-bottom="10" />
  <metadata
     id="metadata3361">
    <rdf:RDF>
      <cc:Work
         rdf:about="">
        <dc:format>image/svg+xml</dc:format>
        <dc:type
           rdf:resource="http://purl.org/dc/dcmitype/StillImage" />
        <dc:title></dc:title>
      </cc:Work>
    </rdf:RDF>
  </metadata>
  <defs
     id="defs3359">
    <marker
       inkscape:stockid="Arrow2Lstart"
       orient="auto"
       refY="0"
       refX="0"
       id="Arrow2Lstart"
       style="overflow:visible"
       inkscape:isstock="true">
      <path
         id="path4592"
         style="fill:#666666;fill-opacity:1;fill-rule:evenodd;stroke:#666666;stroke-width:0.625;stroke-linejoin:round;stroke-opacity:1"
         d="M 8.7185878,4.0337352 -2.2072895,0.01601326 8.7185884,-4.0017078 c -1.7454984,2.3720609 -1.7354408,5.6174519 -6e-7,8.035443 z"
         transform="matrix(1.1,0,0,1.1,1.1,0)"
         inkscape:connector-curvature="0" />
    </marker>
    <marker
       inkscape:stockid="Arrow2Lstart"
       orient="auto"
       refY="0"
       refX="0"
       id="Arrow2Lstart-3"
       style="overflow:visible"
       inkscape:isstock="true">
      <path
         inkscape:connector-curvature="0"
         id="path4592-6"
         style="fill:#666666;fill-opacity:1;fill-rule:evenodd;stroke:#666666;stroke-width:0.625;stroke-linejoin:round;stroke-opacity:1"
         d="M 8.7185878,4.0337352 -2.2072895,0.01601326 8.7185884,-4.0017078 c -1.7454984,2.3720609 -1.7354408,5.6174519 -6e-7,8.035443 z"
         transform="matrix(1.1,0,0,1.1,1.1,0)" />
    </marker>
    <marker
       inkscape:stockid="Arrow2Lstart"
       orient="auto"
       refY="0"
       refX="0"
       id="Arrow2Lstart-5"
       style="overflow:visible"
       inkscape:isstock="true">
      <path
         inkscape:connector-curvature="0"
         id="path4592-3"
         style="fill:#666666;fill-opacity:1;fill-rule:evenodd;stroke:#666666;stroke-width:0.625;stroke-linejoin:round;stroke-opacity:1"
         d="M 8.7185878,4.0337352 -2.2072895,0.01601326 8.7185884,-4.0017078 c -1.7454984,2.3720609 -1.7354408,5.6174519 -6e-7,8.035443 z"
         transform="matrix(1.1,0,0,1.1,1.1,0)" />
    </marker>
  </defs>
  <rect
     x="3.4446251"
     y="-49.338875"
     width="360"
     height="288"
     style="fill:none;fill-opacity:1;stroke:none"
     id="rect3339" />
  <path
     inkscape:connector-curvature="0"
     style="fill:none;stroke:#000000;stroke-width:0.75;stroke-linecap:round;stroke-linejoin:round;stroke-miterlimit:10;stroke-opacity:1"
     d="m 72.511031,165.21972 250.667949,0"
     id="path3341" />
  <path
     inkscape:connector-curvature="0"
     style="fill:none;stroke:#000000;stroke-width:0.75;stroke-linecap:round;stroke-linejoin:round;stroke-miterlimit:10;stroke-opacity:1"
     d="m 72.511031,165.21972 0,7.20313"
     id="path3343" />
  <path
     inkscape:connector-curvature="0"
     style="fill:none;stroke:#000000;stroke-width:0.75;stroke-linecap:round;stroke-linejoin:round;stroke-miterlimit:10;stroke-opacity:1"
     d="m 323.17898,165.21972 0,7.20313"
     id="path3345" />
  <path
     inkscape:connector-curvature="0"
     style="fill:none;stroke:#000000;stroke-width:0.75;stroke-linecap:round;stroke-linejoin:round;stroke-miterlimit:10;stroke-opacity:1"
     d="m 62.483687,159.46191 0,-144.000005"
     id="path3347" />
  <path
     inkscape:connector-curvature="0"
     style="fill:none;stroke:#000000;stroke-width:0.75;stroke-linecap:round;stroke-linejoin:round;stroke-miterlimit:10;stroke-opacity:1"
     d="m 62.483687,159.46191 -7.199218,0"
     id="path3349" />
  <path
     inkscape:connector-curvature="0"
     style="fill:none;stroke:#000000;stroke-width:0.75;stroke-linecap:round;stroke-linejoin:round;stroke-miterlimit:10;stroke-opacity:1"
     d="m 62.483687,15.461905 -7.199218,0"
     id="path3351" />
  <path
     inkscape:connector-curvature="0"
     style="fill:none;stroke:#ee8a61;stroke-width:1.5;stroke-linecap:round;stroke-linejoin:round;stroke-miterlimit:10;stroke-opacity:1"
     d="m 72.511031,159.46191 30.082029,0 2.5039,-0.004 2.50782,-0.008 2.5078,-0.0391 2.50391,-0.10547 2.50781,-0.23828 2.50781,-0.46094 2.50391,-0.77344 2.50781,-1.18359 2.50781,-1.64844 2.50781,-2.14843 2.50391,-2.65625 2.50781,-3.12891 2.50781,-3.55859 2.50391,-3.91407 2.50781,-4.20312 2.50782,-4.41016 2.50781,-4.55469 2.5039,-4.63281 2.50782,-4.64844 2.50781,-4.61718 2.50391,-4.54689 2.50781,-4.44531 2.50781,-4.316406 2.50781,-4.16797 2.50391,-4.00781 2.50781,-3.84375 2.50781,-3.66797 2.50391,-3.49609 2.50781,-3.32031 2.50782,-3.15235 2.5039,-2.98437 2.50781,-2.82422 2.50782,-2.67187 2.50781,-2.52344 2.50391,-2.37891 2.50781,-2.24609 2.50781,-2.11719 2.50391,-2 2.50781,-1.88281 2.50781,-1.777346 2.50781,-1.675782 2.50391,-1.582031 2.50781,-1.488281 2.50782,-1.40625 2.5039,-1.328125 2.50781,-1.253906 2.50782,-1.183594 2.5039,-1.121094 2.50782,-1.054687 2.50781,-1 2.50781,-0.945313 2.50391,-0.894531 2.50781,-0.847656 2.50781,-0.804688 2.50391,-0.757812 2.50781,-0.722656 2.50781,-0.683594 2.50784,-0.648438 2.50389,-0.617187 2.50782,-0.585938 2.50783,-0.554687 2.50388,-0.527344 2.50784,-0.503906 2.50781,-0.476563 2.50389,-0.457031 2.50782,-0.433594 2.50781,-0.414062 2.50781,-0.394532 2.50392,-0.375 2.50781,-0.359374 2.50781,-0.339844 2.50391,-0.328125 2.50781,-0.3125 2.50781,-0.300781 2.50782,-0.285157 2.5039,-0.269531 2.50782,-0.261719 2.50781,-0.25 2.50389,-0.242187 2.50782,-0.226563 2.50781,-0.222656 2.50392,-0.210937 2.50781,-0.199219 2.50781,-0.195313 2.50781,-0.1875 2.50391,-0.179687 2.50781,-0.171875 2.50781,-0.164063"
     id="path3353" />
  <path
     inkscape:connector-curvature="0"
     style="fill:none;stroke:#66a8cf;stroke-width:1.5;stroke-linecap:round;stroke-linejoin:round;stroke-miterlimit:10;stroke-opacity:1"
     d="m 72.511031,159.46191 62.667949,0 2.50391,-0.008 2.50781,-0.0234 2.50782,-0.0977 2.50781,-0.27343 2.5039,-0.60547 2.50782,-1.1211 2.50781,-1.82421 2.50391,-2.64844 2.50781,-3.51953 2.50781,-4.35938 2.50781,-5.10156 2.50391,-5.69922 2.50781,-6.13281 2.50781,-6.39844 2.50391,-6.51953 2.50781,-6.50001 2.50782,-6.37891 2.5039,-6.171866 2.50781,-5.90625 2.50782,-5.60156 2.50781,-5.27344 2.50391,-4.93359 2.50781,-4.58985 2.50781,-4.25781 2.50391,-3.9375 2.50781,-3.62891 2.50781,-3.33593 2.50781,-3.06641 2.50391,-2.812501 2.50781,-2.582031 2.50782,-2.363282 2.5039,-2.167968 2.50781,-1.984376 2.50782,-1.816406 2.5039,-1.664062 2.50782,-1.527344 2.50781,-1.402344 2.50781,-1.285156 2.50391,-1.175781 2.50781,-1.085938 2.50781,-0.996093 2.50391,-0.914063 2.50781,-0.84375 2.50781,-0.777344 2.50782,-0.714843 2.5039,-0.660157 2.50781,-0.609375 2.50782,-0.5625 2.5039,-0.519531 2.50782,-0.484375 2.50781,-0.445312 2.5039,-0.414063 2.50782,-0.386719 2.50781,-0.355468 2.50781,-0.332032 2.50391,-0.308594 2.50781,-0.285156 2.50781,-0.265625 2.50391,-0.25 2.50781,-0.230469 2.50781,-0.21875 2.50782,-0.203124 2.5039,-0.1875 2.50782,-0.175782 2.50781,-0.167968 2.5039,-0.152344 2.50782,-0.148438 2.50781,-0.132812 2.50391,-0.128906 2.50781,-0.121094 2.50781,-0.113282 2.50781,-0.105468 2.50391,-0.09766 2.50781,-0.09375 2.50781,-0.08984"
     id="path3355" />
  <g
     ns0:preamble="/home/dbaston/.config/inkscape/extensions/default_packages.tex"
     ns0:text="\\[z_m\\]"
     word-spacing="normal"
     letter-spacing="normal"
     font-size-adjust="none"
     font-stretch="normal"
     font-weight="normal"
     font-variant="normal"
     font-style="normal"
     stroke-miterlimit="10.433"
     xml:space="preserve"
     transform="matrix(1,0,0,-1,-131.42909,821.37988)"
     id="content"
     style="font-style:normal;font-variant:normal;font-weight:normal;font-stretch:normal;letter-spacing:normal;word-spacing:normal;text-anchor:start;fill:#000000;fill-opacity:1;fill-rule:evenodd;stroke:#000000;stroke-linecap:butt;stroke-linejoin:miter;stroke-miterlimit:10.43299961;stroke-dasharray:none;stroke-dashoffset:0;stroke-opacity:1"><path
       id="path3378"
       d="m 300.85,646.1 0.04,0.06 0.05,0.05 0.05,0.05 0.05,0.05 0.04,0.04 0.04,0.05 0.05,0.04 0.04,0.04 0.04,0.04 0.04,0.04 0.03,0.04 0.04,0.04 0.04,0.03 0.03,0.04 0.08,0.06 0.06,0.07 0.07,0.06 0.07,0.06 0.06,0.05 0.13,0.12 0.06,0.05 0.07,0.06 c 0,0.01 0.62,0.54 0.98,0.9 0.94,0.92 1.16,1.4 1.16,1.44 0,0.1 -0.09,0.1 -0.11,0.1 -0.07,0 -0.1,-0.02 -0.15,-0.11 -0.3,-0.48 -0.51,-0.64 -0.74,-0.64 -0.24,0 -0.36,0.15 -0.51,0.32 -0.19,0.23 -0.36,0.43 -0.69,0.43 -0.75,0 -1.2,-0.93 -1.2,-1.14 0,-0.05 0.03,-0.1 0.12,-0.1 0.09,0 0.1,0.04 0.12,0.1 0.19,0.46 0.77,0.47 0.85,0.47 0.21,0 0.4,-0.07 0.63,-0.15 0.4,-0.14 0.51,-0.14 0.77,-0.14 -0.36,-0.43 -1.2,-1.15 -1.39,-1.31 l -0.89,-0.84 c -0.68,-0.66 -1.03,-1.23 -1.03,-1.3 0,-0.1 0.1,-0.1 0.12,-0.1 0.08,0 0.1,0.02 0.16,0.13 0.23,0.35 0.53,0.61 0.84,0.61 0.23,0 0.33,-0.08 0.58,-0.37 0.17,-0.21 0.35,-0.37 0.64,-0.37 0.99,0 1.56,1.26 1.56,1.53 0,0.05 -0.04,0.1 -0.12,0.1 -0.09,0 -0.11,-0.06 -0.13,-0.13 -0.23,-0.64 -0.87,-0.83 -1.2,-0.83 -0.2,0 -0.38,0.06 -0.59,0.13 -0.34,0.12 -0.49,0.16 -0.7,0.16 -0.02,0 -0.18,0 -0.26,-0.03 z"
       inkscape:connector-curvature="0"
       style="fill:#000000;stroke-width:0" /><path
       id="path3380"
       d="m 307.18,644.35 0,-0.01 0,-0.02 -0.01,-0.01 0,-0.02 -0.01,-0.01 0,-0.02 -0.01,-0.03 -0.01,-0.03 0,-0.03 -0.01,-0.03 -0.01,-0.02 0,-0.02 0,-0.01 -0.01,-0.02 0,-0.01 0,-0.01 -0.01,-0.02 0,-0.01 0,-0.01 -0.01,-0.01 0,-0.01 0,-0.01 0,-0.01 0,-0.01 0,-0.01 -0.01,0 0,-0.01 0,0 c 0,-0.16 0.13,-0.22 0.24,-0.22 0.13,0 0.24,0.09 0.27,0.15 0.04,0.06 0.09,0.29 0.13,0.43 0.03,0.13 0.11,0.45 0.15,0.63 0.04,0.15 0.09,0.31 0.12,0.47 0.08,0.3 0.08,0.31 0.22,0.53 0.22,0.34 0.57,0.73 1.11,0.73 0.39,0 0.41,-0.32 0.41,-0.48 0,-0.42 -0.3,-1.2 -0.41,-1.49 -0.07,-0.19 -0.1,-0.26 -0.1,-0.37 0,-0.37 0.3,-0.6 0.66,-0.6 0.7,0 1.01,0.96 1.01,1.06 0,0.09 -0.1,0.09 -0.12,0.09 -0.09,0 -0.1,-0.04 -0.13,-0.12 -0.16,-0.55 -0.46,-0.84 -0.74,-0.84 -0.14,0 -0.17,0.1 -0.17,0.25 0,0.16 0.03,0.25 0.16,0.56 0.08,0.22 0.37,0.95 0.37,1.35 0,0.11 0,0.4 -0.26,0.6 -0.12,0.09 -0.32,0.19 -0.65,0.19 -0.63,0 -1.01,-0.41 -1.23,-0.7 -0.06,0.59 -0.55,0.7 -0.91,0.7 -0.58,0 -0.97,-0.35 -1.18,-0.63 -0.05,0.48 -0.46,0.63 -0.74,0.63 -0.31,0 -0.47,-0.22 -0.56,-0.38 -0.15,-0.25 -0.25,-0.65 -0.25,-0.69 0,-0.09 0.1,-0.09 0.12,-0.09 0.1,0 0.11,0.02 0.16,0.21 0.1,0.41 0.23,0.75 0.5,0.75 0.19,0 0.23,-0.15 0.23,-0.34 0,-0.13 -0.06,-0.39 -0.11,-0.58 -0.05,-0.18 -0.12,-0.47 -0.15,-0.62 l -0.22,-0.9 c -0.03,-0.09 -0.07,-0.26 -0.07,-0.28 0,-0.16 0.12,-0.22 0.23,-0.22 0.13,0 0.24,0.09 0.28,0.15 0.03,0.06 0.09,0.29 0.12,0.43 0.04,0.13 0.11,0.45 0.15,0.63 0.05,0.15 0.09,0.31 0.12,0.47 0.08,0.28 0.09,0.34 0.3,0.62 0.19,0.28 0.52,0.64 1.04,0.64 0.41,0 0.41,-0.35 0.41,-0.48 0,-0.18 -0.02,-0.27 -0.11,-0.66 z"
       inkscape:connector-curvature="0"
       style="fill:#000000;stroke-width:0" /></g>  <g
     style="font-style:normal;font-variant:normal;font-weight:normal;font-stretch:normal;letter-spacing:normal;word-spacing:normal;text-anchor:start;fill:#000000;fill-opacity:1;fill-rule:evenodd;stroke:#000000;stroke-linecap:butt;stroke-linejoin:miter;stroke-miterlimit:10.43299961;stroke-dasharray:none;stroke-dashoffset:0;stroke-opacity:1"
     id="g3414"
     transform="matrix(1,0,0,-1,0.355387,833.90433)"
     xml:space="preserve"
     stroke-miterlimit="10.433"
     font-style="normal"
     font-variant="normal"
     font-weight="normal"
     font-stretch="normal"
     font-size-adjust="none"
     letter-spacing="normal"
     word-spacing="normal"
     ns0:text="$\\hat{z}_0$"
     ns0:preamble="/home/dbaston/.config/inkscape/extensions/default_packages.tex"><polygon
       style="fill:#000000;stroke-width:0"
       points="153.13,662.79 151.8,664.15 150.47,662.79 150.65,662.61 151.8,663.63 152.95,662.61 "
       id="polygon3416" /><path
       style="fill:#000000;stroke-width:0"
       inkscape:connector-curvature="0"
       d="m 150.04,658.06 0.04,0.05 0.05,0.05 0.05,0.05 0.05,0.05 0.04,0.05 0.04,0.04 0.05,0.05 0.04,0.04 0.04,0.04 0.04,0.04 0.03,0.03 0.04,0.04 0.04,0.04 0.03,0.03 0.08,0.07 0.06,0.06 0.07,0.06 0.07,0.06 0.06,0.06 0.13,0.11 0.06,0.06 0.07,0.06 c 0,0.01 0.62,0.53 0.98,0.89 0.94,0.93 1.16,1.41 1.16,1.45 0,0.1 -0.09,0.1 -0.11,0.1 -0.07,0 -0.1,-0.02 -0.15,-0.11 -0.3,-0.48 -0.5,-0.64 -0.74,-0.64 -0.24,0 -0.36,0.15 -0.51,0.32 -0.19,0.23 -0.36,0.43 -0.69,0.43 -0.75,0 -1.2,-0.93 -1.2,-1.14 0,-0.05 0.03,-0.11 0.11,-0.11 0.09,0 0.11,0.05 0.13,0.11 0.19,0.46 0.77,0.47 0.85,0.47 0.21,0 0.4,-0.07 0.63,-0.15 0.4,-0.15 0.51,-0.15 0.77,-0.15 -0.36,-0.43 -1.2,-1.15 -1.39,-1.31 l -0.9,-0.83 c -0.67,-0.67 -1.02,-1.24 -1.02,-1.31 0,-0.1 0.1,-0.1 0.12,-0.1 0.08,0 0.1,0.02 0.16,0.13 0.23,0.35 0.53,0.62 0.84,0.62 0.23,0 0.33,-0.09 0.58,-0.38 0.17,-0.21 0.35,-0.37 0.64,-0.37 0.99,0 1.56,1.27 1.56,1.54 0,0.05 -0.04,0.1 -0.12,0.1 -0.08,0 -0.1,-0.06 -0.13,-0.13 -0.23,-0.65 -0.87,-0.84 -1.2,-0.84 -0.2,0 -0.38,0.06 -0.59,0.13 -0.34,0.13 -0.49,0.17 -0.7,0.17 -0.02,0 -0.18,0 -0.26,-0.03 z"
       id="path3418" /><path
       style="fill:#000000;stroke-width:0"
       inkscape:connector-curvature="0"
       d="m 156.94,657.97 0,0.14 0,0.13 -0.01,0.13 -0.01,0.13 -0.01,0.13 -0.01,0.11 -0.02,0.12 -0.02,0.11 -0.03,0.11 -0.03,0.11 -0.03,0.1 -0.04,0.1 -0.04,0.1 -0.05,0.09 -0.05,0.1 -0.03,0.05 -0.03,0.04 c -0.21,0.32 -0.65,0.6 -1.2,0.6 -1.62,0 -1.62,-1.9 -1.62,-2.4 0,-0.51 0,-2.37 1.62,-2.37 l 0,0.2 c -0.32,0 -0.75,0.18 -0.89,0.76 -0.1,0.41 -0.1,0.98 -0.1,1.49 0,0.51 0,1.04 0.11,1.43 0.14,0.55 0.59,0.69 0.88,0.69 0.37,0 0.74,-0.22 0.86,-0.63 0.11,-0.38 0.12,-0.88 0.12,-1.49 0,-0.51 0,-1.03 -0.09,-1.47 -0.14,-0.63 -0.62,-0.78 -0.89,-0.78 l 0,0 0,-0.2 c 1.61,0 1.61,1.86 1.61,2.37 z"
       id="path3420" /></g>  <g
     ns0:preamble="/home/dbaston/.config/inkscape/extensions/default_packages.tex"
     ns0:text="$q_m$"
     word-spacing="normal"
     letter-spacing="normal"
     font-size-adjust="none"
     font-stretch="normal"
     font-weight="normal"
     font-variant="normal"
     font-style="normal"
     stroke-miterlimit="10.433"
     xml:space="preserve"
     transform="matrix(1,0,0,-1,-102.73183,767.98694)"
     id="g3462"
     style="font-style:normal;font-variant:normal;font-weight:normal;font-stretch:normal;letter-spacing:normal;word-spacing:normal;text-anchor:start;fill:#000000;fill-opacity:1;fill-rule:evenodd;stroke:#000000;stroke-linecap:butt;stroke-linejoin:miter;stroke-miterlimit:10.43299961;stroke-dasharray:none;stroke-dashoffset:0;stroke-opacity:1"><path
       id="path3464"
       d="m 153.21,661.53 0,0 0,0 0,0.01 0,0 0,0.01 0,0 0,0 0,0.01 0,0 -0.01,0.01 0,0 0,0.01 0,0 -0.01,0 0,0.01 0,0 0,0 -0.01,0.01 0,0 0,0 -0.01,0.01 0,0 -0.01,0 0,0.01 -0.01,0 0,0 -0.01,0 0,0 -0.01,0 0,0.01 -0.01,0 -0.01,0 c -0.11,0 -0.51,-0.4 -0.67,-0.69 -0.22,0.54 -0.61,0.7 -0.93,0.7 l 0,-0.22 c 0.65,0 0.79,-0.81 0.79,-0.88 0,-0.06 -0.55,-2.24 -0.58,-2.28 -0.15,-0.28 -0.71,-0.92 -1.27,-0.92 l 0,0 c -0.59,0 -0.63,0.77 -0.63,0.94 0,0.48 0.28,1.56 0.45,1.98 0.31,0.74 0.83,1.16 1.24,1.16 l 0,0.22 c -1.18,0 -2.4,-1.48 -2.4,-2.92 0,-0.98 0.59,-1.6 1.31,-1.6 0.43,0 0.82,0.24 1.18,0.6 -0.09,-0.35 -0.42,-1.69 -0.45,-1.78 -0.08,-0.28 -0.16,-0.32 -0.72,-0.33 -0.13,0 -0.23,0 -0.23,-0.2 0,-0.01 0,-0.11 0.13,-0.11 0.32,0 0.67,0.03 1,0.03 0.34,0 0.7,-0.03 1.03,-0.03 0.05,0 0.18,0 0.18,0.2 0,0.11 -0.1,0.11 -0.26,0.11 -0.48,0 -0.48,0.07 -0.48,0.16 0,0.07 0.02,0.13 0.04,0.22 z"
       inkscape:connector-curvature="0"
       style="fill:#000000;stroke-width:0" /><path
       id="path3466"
       d="m 156.18,656.3 0,-0.01 0,-0.01 -0.01,-0.02 0,-0.01 0,-0.02 -0.01,-0.01 -0.01,-0.03 0,-0.04 -0.01,-0.03 -0.01,-0.03 0,-0.02 -0.01,-0.01 0,-0.02 -0.01,-0.01 0,-0.01 0,-0.02 -0.01,-0.01 0,-0.01 0,-0.02 0,-0.01 -0.01,-0.01 0,-0.01 0,-0.01 0,0 0,-0.01 0,-0.01 0,0 0,-0.01 c 0,-0.15 0.12,-0.22 0.23,-0.22 0.13,0 0.24,0.09 0.28,0.15 0.03,0.07 0.09,0.29 0.12,0.44 0.04,0.13 0.11,0.45 0.16,0.62 0.04,0.16 0.08,0.31 0.11,0.47 0.08,0.3 0.08,0.31 0.22,0.53 0.22,0.34 0.57,0.74 1.11,0.74 0.4,0 0.42,-0.32 0.42,-0.49 0,-0.42 -0.3,-1.19 -0.42,-1.48 -0.07,-0.2 -0.1,-0.26 -0.1,-0.38 0,-0.37 0.31,-0.6 0.66,-0.6 0.7,0 1.01,0.96 1.01,1.07 0,0.09 -0.09,0.09 -0.11,0.09 -0.1,0 -0.11,-0.04 -0.14,-0.12 -0.16,-0.56 -0.46,-0.84 -0.74,-0.84 -0.14,0 -0.17,0.09 -0.17,0.24 0,0.16 0.03,0.25 0.16,0.56 0.08,0.22 0.37,0.96 0.37,1.35 0,0.11 0,0.4 -0.26,0.61 -0.12,0.09 -0.32,0.19 -0.65,0.19 -0.62,0 -1.01,-0.42 -1.23,-0.71 -0.06,0.59 -0.55,0.71 -0.91,0.71 -0.58,0 -0.97,-0.36 -1.18,-0.64 -0.04,0.48 -0.46,0.64 -0.74,0.64 -0.3,0 -0.46,-0.22 -0.55,-0.38 -0.16,-0.26 -0.25,-0.66 -0.25,-0.69 0,-0.09 0.09,-0.09 0.11,-0.09 0.1,0 0.11,0.02 0.16,0.21 0.1,0.41 0.23,0.75 0.51,0.75 0.18,0 0.23,-0.15 0.23,-0.34 0,-0.13 -0.07,-0.39 -0.12,-0.58 -0.04,-0.19 -0.11,-0.48 -0.15,-0.63 l -0.22,-0.89 c -0.03,-0.09 -0.07,-0.27 -0.07,-0.29 0,-0.15 0.12,-0.22 0.24,-0.22 0.12,0 0.23,0.09 0.27,0.15 0.03,0.07 0.09,0.29 0.12,0.44 0.04,0.13 0.11,0.45 0.16,0.62 0.04,0.16 0.08,0.31 0.12,0.47 0.07,0.29 0.09,0.34 0.29,0.63 0.19,0.28 0.52,0.64 1.04,0.64 0.41,0 0.42,-0.35 0.42,-0.49 0,-0.17 -0.03,-0.26 -0.12,-0.65 z"
       inkscape:connector-curvature="0"
       style="fill:#000000;stroke-width:0" /></g>  <g
     style="font-style:normal;font-variant:normal;font-weight:normal;font-stretch:normal;letter-spacing:normal;word-spacing:normal;text-anchor:start;fill:#000000;fill-opacity:1;fill-rule:evenodd;stroke:#000000;stroke-linecap:butt;stroke-linejoin:miter;stroke-miterlimit:10.43299961;stroke-dasharray:none;stroke-dashoffset:0;stroke-opacity:1"
     id="g3514"
     transform="matrix(1,0,0,-1,40.804637,744.70981)"
     xml:space="preserve"
     stroke-miterlimit="10.433"
     font-style="normal"
     font-variant="normal"
     font-weight="normal"
     font-stretch="normal"
     font-size-adjust="none"
     letter-spacing="normal"
     word-spacing="normal"
     ns0:text="$F_m$"
     ns0:preamble="/home/dbaston/.config/inkscape/extensions/default_packages.tex"><path
       style="fill:#000000;stroke-width:0"
       inkscape:connector-curvature="0"
       d="m 151.73,660.47 0.97,0 c 0.74,0 0.82,-0.16 0.82,-0.45 0,-0.07 0,-0.19 -0.07,-0.49 -0.02,-0.05 -0.03,-0.09 -0.03,-0.11 0,-0.08 0.06,-0.12 0.12,-0.12 0.1,0 0.1,0.04 0.15,0.21 l 0.55,2.17 c 0.03,0.1 0.03,0.12 0.03,0.16 0,0.01 -0.02,0.11 -0.12,0.11 -0.1,0 -0.11,-0.05 -0.15,-0.21 -0.21,-0.78 -0.44,-0.96 -1.29,-0.96 l -0.9,0 0.64,2.53 c 0.09,0.35 0.1,0.39 0.53,0.39 l 1.32,0 c 1.22,0 1.45,-0.33 1.45,-1.1 0,-0.23 0,-0.27 -0.03,-0.54 -0.02,-0.13 -0.02,-0.15 -0.02,-0.17 0,-0.05 0.03,-0.12 0.12,-0.12 0.11,0 0.12,0.06 0.14,0.25 l 0.2,1.72 c 0.03,0.27 -0.02,0.27 -0.27,0.27 l -4.88,0 c -0.2,0 -0.3,0 -0.3,-0.2 0,-0.11 0.09,-0.11 0.28,-0.11 0.37,0 0.65,0 0.65,-0.18 0,-0.04 0,-0.06 -0.05,-0.24 l -1.32,-5.27 c -0.1,-0.39 -0.12,-0.47 -0.9,-0.47 -0.17,0 -0.28,0 -0.28,-0.19 0,-0.12 0.12,-0.12 0.15,-0.12 0.29,0 1.02,0.03 1.31,0.03 0.33,0 1.16,-0.03 1.49,-0.03 0.09,0 0.21,0 0.21,0.19 0,0.08 -0.06,0.1 -0.06,0.11 -0.03,0.01 -0.05,0.01 -0.28,0.01 -0.22,0 -0.27,0 -0.52,0.02 -0.29,0.03 -0.32,0.07 -0.32,0.2 0,0.02 0,0.08 0.04,0.23 z"
       id="path3516" /><path
       style="fill:#000000;stroke-width:0"
       inkscape:connector-curvature="0"
       d="m 158.15,656.3 0,-0.01 -0.01,-0.01 0,-0.02 -0.01,-0.01 0,-0.02 0,-0.01 -0.01,-0.03 -0.01,-0.04 -0.01,-0.03 -0.01,-0.03 0,-0.02 0,-0.01 -0.01,-0.02 0,-0.01 0,-0.01 -0.01,-0.02 0,-0.01 0,-0.01 -0.01,-0.02 0,-0.01 0,-0.01 0,-0.01 0,-0.01 -0.01,0 0,-0.01 0,-0.01 0,0 0,-0.01 c 0,-0.15 0.13,-0.22 0.24,-0.22 0.12,0 0.24,0.09 0.27,0.15 0.04,0.07 0.09,0.29 0.13,0.44 0.03,0.13 0.11,0.45 0.15,0.62 0.04,0.16 0.08,0.31 0.12,0.47 0.08,0.3 0.08,0.31 0.21,0.53 0.23,0.34 0.58,0.74 1.12,0.74 0.39,0 0.41,-0.32 0.41,-0.49 0,-0.42 -0.3,-1.19 -0.41,-1.48 -0.08,-0.2 -0.11,-0.26 -0.11,-0.38 0,-0.37 0.31,-0.6 0.67,-0.6 0.69,0 1,0.96 1,1.07 0,0.09 -0.09,0.09 -0.11,0.09 -0.1,0 -0.1,-0.04 -0.13,-0.12 -0.16,-0.56 -0.46,-0.84 -0.74,-0.84 -0.15,0 -0.17,0.09 -0.17,0.24 0,0.16 0.03,0.25 0.15,0.56 0.09,0.22 0.38,0.96 0.38,1.35 0,0.11 0,0.4 -0.26,0.61 -0.12,0.09 -0.32,0.19 -0.65,0.19 -0.63,0 -1.01,-0.42 -1.24,-0.71 -0.05,0.59 -0.55,0.71 -0.9,0.71 -0.58,0 -0.97,-0.36 -1.18,-0.64 -0.05,0.48 -0.46,0.64 -0.75,0.64 -0.3,0 -0.46,-0.22 -0.55,-0.38 -0.15,-0.26 -0.25,-0.66 -0.25,-0.69 0,-0.09 0.1,-0.09 0.12,-0.09 0.1,0 0.1,0.02 0.15,0.21 0.11,0.41 0.24,0.75 0.51,0.75 0.18,0 0.23,-0.15 0.23,-0.34 0,-0.13 -0.06,-0.39 -0.11,-0.58 -0.05,-0.19 -0.12,-0.48 -0.15,-0.63 l -0.23,-0.89 c -0.02,-0.09 -0.07,-0.27 -0.07,-0.29 0,-0.15 0.13,-0.22 0.24,-0.22 0.13,0 0.24,0.09 0.27,0.15 0.04,0.07 0.09,0.29 0.13,0.44 0.03,0.13 0.11,0.45 0.15,0.62 0.04,0.16 0.08,0.31 0.12,0.47 0.08,0.29 0.09,0.34 0.29,0.63 0.2,0.28 0.53,0.64 1.05,0.64 0.4,0 0.41,-0.35 0.41,-0.49 0,-0.17 -0.02,-0.26 -0.12,-0.65 z"
       id="path3518" /></g>  <g
     ns0:preamble="/home/dbaston/.config/inkscape/extensions/default_packages.tex"
     ns0:text="$F_0$"
     word-spacing="normal"
     letter-spacing="normal"
     font-size-adjust="none"
     font-stretch="normal"
     font-weight="normal"
     font-variant="normal"
     font-style="normal"
     stroke-miterlimit="10.433"
     xml:space="preserve"
     transform="matrix(1,0,0,-1,15.359086,729.48137)"
     id="g3572"
     style="font-style:normal;font-variant:normal;font-weight:normal;font-stretch:normal;letter-spacing:normal;word-spacing:normal;text-anchor:start;fill:#000000;fill-opacity:1;fill-rule:evenodd;stroke:#000000;stroke-linecap:butt;stroke-linejoin:miter;stroke-miterlimit:10.43299961;stroke-dasharray:none;stroke-dashoffset:0;stroke-opacity:1"><path
       id="path3574"
       d="m 151.73,660.47 0.97,0 c 0.74,0 0.82,-0.16 0.82,-0.45 0,-0.07 0,-0.19 -0.07,-0.49 -0.02,-0.05 -0.03,-0.09 -0.03,-0.11 0,-0.08 0.06,-0.12 0.12,-0.12 0.1,0 0.1,0.04 0.15,0.21 l 0.55,2.17 c 0.03,0.1 0.03,0.12 0.03,0.16 0,0.01 -0.02,0.11 -0.12,0.11 -0.1,0 -0.11,-0.05 -0.15,-0.21 -0.21,-0.78 -0.44,-0.96 -1.29,-0.96 l -0.9,0 0.64,2.53 c 0.09,0.35 0.1,0.39 0.53,0.39 l 1.32,0 c 1.22,0 1.45,-0.33 1.45,-1.1 0,-0.23 0,-0.27 -0.03,-0.54 -0.02,-0.13 -0.02,-0.15 -0.02,-0.17 0,-0.05 0.03,-0.12 0.12,-0.12 0.11,0 0.12,0.06 0.14,0.25 l 0.2,1.72 c 0.03,0.27 -0.02,0.27 -0.27,0.27 l -4.88,0 c -0.2,0 -0.3,0 -0.3,-0.2 0,-0.11 0.09,-0.11 0.28,-0.11 0.37,0 0.65,0 0.65,-0.18 0,-0.04 0,-0.06 -0.05,-0.24 l -1.32,-5.27 c -0.1,-0.39 -0.12,-0.47 -0.9,-0.47 -0.17,0 -0.28,0 -0.28,-0.19 0,-0.12 0.12,-0.12 0.15,-0.12 0.29,0 1.02,0.03 1.31,0.03 0.33,0 1.16,-0.03 1.49,-0.03 0.09,0 0.21,0 0.21,0.19 0,0.08 -0.06,0.1 -0.06,0.11 -0.03,0.01 -0.05,0.01 -0.28,0.01 -0.22,0 -0.27,0 -0.52,0.02 -0.29,0.03 -0.32,0.07 -0.32,0.2 0,0.02 0,0.08 0.04,0.23 z"
       inkscape:connector-curvature="0"
       style="fill:#000000;stroke-width:0" /><path
       id="path3576"
       d="m 158.72,657.97 0,0.14 0,0.13 -0.01,0.13 -0.01,0.13 -0.01,0.13 -0.01,0.11 -0.02,0.12 -0.02,0.11 -0.03,0.11 -0.03,0.11 -0.03,0.1 -0.04,0.1 -0.04,0.1 -0.05,0.09 -0.05,0.1 -0.03,0.05 -0.03,0.04 c -0.22,0.32 -0.65,0.6 -1.21,0.6 -1.61,0 -1.61,-1.9 -1.61,-2.4 0,-0.51 0,-2.37 1.61,-2.37 l 0,0.2 c -0.32,0 -0.74,0.18 -0.88,0.76 -0.1,0.41 -0.1,0.98 -0.1,1.49 0,0.51 0,1.04 0.1,1.43 0.15,0.55 0.6,0.69 0.88,0.69 0.38,0 0.74,-0.22 0.87,-0.63 0.11,-0.38 0.12,-0.88 0.12,-1.49 0,-0.51 0,-1.03 -0.09,-1.47 -0.14,-0.63 -0.62,-0.78 -0.9,-0.78 l 0,0 0,-0.2 c 1.62,0 1.62,1.86 1.62,2.37 z"
       inkscape:connector-curvature="0"
       style="fill:#000000;stroke-width:0" /></g>  <g
     style="font-style:normal;font-variant:normal;font-weight:normal;font-stretch:normal;letter-spacing:normal;word-spacing:normal;text-anchor:start;fill:#000000;fill-opacity:1;fill-rule:evenodd;stroke:#000000;stroke-linecap:butt;stroke-linejoin:miter;stroke-miterlimit:10.43299961;stroke-dasharray:none;stroke-dashoffset:0;stroke-opacity:1"
     id="g3636"
     transform="matrix(1,0,0,-1,-139.11,674.7)"
     xml:space="preserve"
     stroke-miterlimit="10.433"
     font-style="normal"
     font-variant="normal"
     font-weight="normal"
     font-stretch="normal"
     font-size-adjust="none"
     letter-spacing="normal"
     word-spacing="normal"
     ns0:text="$P\\left(Z \\le z\\right)$"
     ns0:preamble="/home/dbaston/.config/inkscape/extensions/default_packages.tex"><path
       style="fill:#000000;stroke-width:0"
       inkscape:connector-curvature="0"
       d="m 151.73,660.38 0.04,0.26 0.68,2.71 c 0.09,0.35 0.11,0.38 0.53,0.38 l 0.96,0 c 0.83,0 1.35,-0.27 1.35,-0.96 0,-0.39 -0.19,-1.24 -0.58,-1.6 -0.5,-0.45 -1.1,-0.53 -1.54,-0.53 l -1.4,0 -0.04,-0.26 1.69,0 c 1.42,0 2.8,1.04 2.8,2.15 0,0.77 -0.66,1.51 -1.96,1.51 l -3.23,0 c -0.19,0 -0.3,0 -0.3,-0.19 0,-0.12 0.09,-0.12 0.29,-0.12 0.13,0 0.31,-0.01 0.43,-0.02 0.16,-0.02 0.22,-0.05 0.22,-0.16 0,-0.04 -0.01,-0.07 -0.04,-0.19 l -1.34,-5.35 c -0.1,-0.39 -0.12,-0.47 -0.9,-0.47 -0.17,0 -0.28,0 -0.28,-0.19 0,-0.12 0.12,-0.12 0.15,-0.12 0.28,0 0.98,0.03 1.26,0.03 0.21,0 0.43,-0.01 0.64,-0.01 0.22,0 0.44,-0.02 0.65,-0.02 0.07,0 0.2,0 0.2,0.2 0,0.11 -0.09,0.11 -0.28,0.11 -0.37,0 -0.65,0 -0.65,0.18 0,0.06 0.02,0.11 0.03,0.17 z"
       id="path3638" /><path
       style="fill:#000000;stroke-width:0"
       inkscape:connector-curvature="0"
       d="m 161.45,654.84 0,0.01 0,0 0,0 0,0.01 0,0 0,0 0,0.01 -0.01,0 0,0 0,0.01 0,0 0,0.01 -0.01,0 0,0.01 -0.01,0 0,0.01 -0.01,0.01 0,0 0,0.01 -0.01,0 0,0.01 0,0 -0.01,0.01 0,0 -0.01,0 0,0.01 -0.01,0 0,0.01 -0.01,0 0,0.01 -0.01,0.01 0,0 -0.01,0.01 0,0 -0.01,0.01 -0.01,0.01 0,0 -0.01,0.01 -0.01,0.01 0,0.01 -0.01,0 -0.01,0.01 c -1.24,1.26 -1.56,3.14 -1.56,4.66 0,1.74 0.38,3.47 1.6,4.71 0.13,0.12 0.13,0.15 0.13,0.17 0,0.07 -0.04,0.1 -0.1,0.1 -0.1,0 -1,-0.67 -1.58,-1.94 -0.51,-1.09 -0.63,-2.2 -0.63,-3.04 0,-0.77 0.11,-1.98 0.66,-3.11 0.59,-1.22 1.45,-1.87 1.55,-1.87 0.06,0 0.1,0.03 0.1,0.1 z"
       id="path3640" /><path
       style="fill:#000000;stroke-width:0"
       inkscape:connector-curvature="0"
       d="m 169.2,663.8 0,0.01 0.01,0 0,0.01 0,0.01 0,0.01 0.01,0.01 0,0.01 0,0.01 0,0 0.01,0.01 0,0.01 0,0.01 0,0.01 0,0.02 0,0 0,0.01 0,0 0,0.01 c 0,0.09 -0.05,0.09 -0.25,0.09 l -4.2,0 c -0.24,0 -0.25,-0.01 -0.31,-0.2 l -0.55,-1.8 c -0.02,-0.05 -0.03,-0.12 -0.03,-0.13 0,-0.01 0,-0.12 0.12,-0.12 0.09,0 0.11,0.07 0.13,0.11 0.38,1.17 0.9,1.83 2.45,1.83 l 1.63,0 -5.57,-6.23 c 0,-0.01 -0.04,-0.15 -0.04,-0.18 0,-0.09 0.07,-0.09 0.25,-0.09 l 4.33,0 c 0.24,0 0.25,0.01 0.31,0.2 l 0.71,2.2 c 0.01,0.04 0.04,0.11 0.04,0.15 0,0.05 -0.04,0.11 -0.13,0.11 -0.09,0 -0.1,-0.04 -0.17,-0.25 -0.44,-1.35 -0.92,-2.07 -2.61,-2.07 l -1.71,0 z"
       id="path3642" /><path
       style="fill:#000000;stroke-width:0"
       inkscape:connector-curvature="0"
       d="m 179.03,663.15 0.02,0.01 0.02,0.01 0.01,0 0.01,0.01 0.01,0 0.01,0.01 0,0 0.01,0.01 0.01,0 0.01,0.01 0.01,0.01 0,0 0.01,0.01 0.01,0 0,0.01 0.01,0.01 0,0 0.01,0.01 0,0.01 0.01,0.01 0,0 0,0.01 0.01,0.01 0,0.01 0,0.01 0.01,0.01 0,0.01 0,0.01 0,0.01 0,0.01 c 0,0.11 -0.08,0.2 -0.2,0.2 -0.05,0 -0.14,-0.04 -0.18,-0.06 l -5.51,-2.6 c -0.17,-0.08 -0.2,-0.15 -0.2,-0.23 0,-0.09 0.06,-0.16 0.2,-0.22 l 5.51,-2.59 c 0.13,-0.07 0.15,-0.07 0.18,-0.07 0.11,0 0.2,0.09 0.2,0.2 0,0.09 -0.04,0.15 -0.21,0.23 l -5.21,2.45 z"
       id="path3644" /><path
       style="fill:#000000;stroke-width:0"
       inkscape:connector-curvature="0"
       d="m 178.87,655.87 0.03,0 0.03,0 0.04,0 0.01,0 0.02,0 0.01,0 0.02,0 0.01,0.01 0.02,0 0.01,0 0.01,0 0.02,0.01 0.01,0 0.01,0.01 0.01,0 0.01,0.01 0.01,0.01 0.01,0 0.01,0.01 0.01,0.01 0.01,0.01 0,0.01 0.01,0 0,0.01 0,0 0,0.01 0.01,0.01 0,0 0,0.01 0,0.01 0,0.01 0.01,0 0,0.01 0,0.01 0,0.01 0,0.01 0,0.01 c 0,0.2 -0.21,0.2 -0.36,0.2 l -5.37,0 c -0.15,0 -0.36,0 -0.36,-0.2 0,-0.2 0.18,-0.2 0.35,-0.2 z"
       id="path3646" /><path
       style="fill:#000000;stroke-width:0"
       inkscape:connector-curvature="0"
       d="m 184.15,658.06 0.05,0.05 0.05,0.05 0.05,0.05 0.04,0.05 0.05,0.05 0.04,0.04 0.04,0.05 0.04,0.04 0.04,0.04 0.04,0.04 0.04,0.03 0.04,0.04 0.04,0.04 0.03,0.03 0.07,0.07 0.07,0.06 0.07,0.06 0.06,0.06 0.07,0.06 0.13,0.11 0.06,0.06 0.07,0.06 c 0,0.01 0.62,0.53 0.97,0.89 0.95,0.93 1.17,1.41 1.17,1.45 0,0.1 -0.09,0.1 -0.11,0.1 -0.07,0 -0.1,-0.02 -0.15,-0.11 -0.3,-0.48 -0.51,-0.64 -0.75,-0.64 -0.23,0 -0.35,0.15 -0.5,0.32 -0.19,0.23 -0.36,0.43 -0.69,0.43 -0.75,0 -1.21,-0.93 -1.21,-1.14 0,-0.05 0.03,-0.11 0.12,-0.11 0.09,0 0.11,0.05 0.13,0.11 0.19,0.46 0.77,0.47 0.85,0.47 0.21,0 0.4,-0.07 0.63,-0.15 0.4,-0.15 0.5,-0.15 0.76,-0.15 -0.35,-0.43 -1.19,-1.15 -1.38,-1.31 l -0.9,-0.83 c -0.68,-0.67 -1.02,-1.24 -1.02,-1.31 0,-0.1 0.1,-0.1 0.12,-0.1 0.08,0 0.1,0.02 0.16,0.13 0.22,0.35 0.52,0.62 0.84,0.62 0.23,0 0.33,-0.09 0.58,-0.38 0.17,-0.21 0.35,-0.37 0.64,-0.37 0.98,0 1.56,1.27 1.56,1.54 0,0.05 -0.04,0.1 -0.12,0.1 -0.09,0 -0.11,-0.06 -0.14,-0.13 -0.23,-0.65 -0.86,-0.84 -1.19,-0.84 -0.2,0 -0.38,0.06 -0.59,0.13 -0.34,0.13 -0.49,0.17 -0.7,0.17 -0.02,0 -0.18,0 -0.27,-0.03 z"
       id="path3648" /><path
       style="fill:#000000;stroke-width:0"
       inkscape:connector-curvature="0"
       d="m 190.78,659.72 0,0.08 0,0.07 -0.01,0.08 0,0.08 -0.01,0.17 -0.01,0.18 -0.02,0.18 -0.02,0.19 -0.02,0.2 -0.04,0.2 -0.04,0.2 -0.04,0.21 -0.06,0.21 -0.06,0.21 -0.07,0.21 -0.08,0.22 -0.04,0.1 -0.04,0.11 -0.05,0.11 -0.05,0.1 c -0.6,1.23 -1.46,1.87 -1.55,1.87 -0.06,0 -0.11,-0.04 -0.11,-0.1 0,-0.02 0,-0.05 0.19,-0.22 0.98,-0.99 1.55,-2.58 1.55,-4.66 0,-1.7 -0.37,-3.45 -1.6,-4.71 -0.14,-0.12 -0.14,-0.14 -0.14,-0.17 0,-0.06 0.05,-0.1 0.11,-0.1 0.09,0 0.99,0.68 1.58,1.94 0.51,1.1 0.63,2.21 0.63,3.04 z"
       id="path3650" /></g>  <g
     ns0:preamble="/home/dbaston/.config/inkscape/extensions/default_packages.tex"
     ns0:text="$z$"
     word-spacing="normal"
     letter-spacing="normal"
     font-size-adjust="none"
     font-stretch="normal"
     font-weight="normal"
     font-variant="normal"
     font-style="normal"
     stroke-miterlimit="10.433"
     xml:space="preserve"
     transform="matrix(1,0,0,-1,171.97421,837.77384)"
     id="g3726"
     style="font-style:normal;font-variant:normal;font-weight:normal;font-stretch:normal;letter-spacing:normal;word-spacing:normal;text-anchor:start;fill:#000000;fill-opacity:1;fill-rule:evenodd;stroke:#000000;stroke-linecap:butt;stroke-linejoin:miter;stroke-miterlimit:10.43299961;stroke-dasharray:none;stroke-dashoffset:0;stroke-opacity:1"><path
       id="path3728"
       d="m 150.04,658.06 0.04,0.05 0.05,0.05 0.05,0.05 0.05,0.05 0.04,0.05 0.04,0.04 0.05,0.05 0.04,0.04 0.04,0.04 0.04,0.04 0.03,0.03 0.04,0.04 0.04,0.04 0.03,0.03 0.08,0.07 0.06,0.06 0.07,0.06 0.07,0.06 0.06,0.06 0.13,0.11 0.06,0.06 0.07,0.06 c 0,0.01 0.62,0.53 0.98,0.89 0.94,0.93 1.16,1.41 1.16,1.45 0,0.1 -0.09,0.1 -0.11,0.1 -0.07,0 -0.1,-0.02 -0.15,-0.11 -0.3,-0.48 -0.5,-0.64 -0.74,-0.64 -0.24,0 -0.36,0.15 -0.51,0.32 -0.19,0.23 -0.36,0.43 -0.69,0.43 -0.75,0 -1.2,-0.93 -1.2,-1.14 0,-0.05 0.03,-0.11 0.11,-0.11 0.09,0 0.11,0.05 0.13,0.11 0.19,0.46 0.77,0.47 0.85,0.47 0.21,0 0.4,-0.07 0.63,-0.15 0.4,-0.15 0.51,-0.15 0.77,-0.15 -0.36,-0.43 -1.2,-1.15 -1.39,-1.31 l -0.9,-0.83 c -0.67,-0.67 -1.02,-1.24 -1.02,-1.31 0,-0.1 0.1,-0.1 0.12,-0.1 0.08,0 0.1,0.02 0.16,0.13 0.23,0.35 0.53,0.62 0.84,0.62 0.23,0 0.33,-0.09 0.58,-0.38 0.17,-0.21 0.35,-0.37 0.64,-0.37 0.99,0 1.56,1.27 1.56,1.54 0,0.05 -0.04,0.1 -0.12,0.1 -0.08,0 -0.1,-0.06 -0.13,-0.13 -0.23,-0.65 -0.87,-0.84 -1.2,-0.84 -0.2,0 -0.38,0.06 -0.59,0.13 -0.34,0.13 -0.49,0.17 -0.7,0.17 -0.02,0 -0.18,0 -0.26,-0.03 z"
       inkscape:connector-curvature="0"
       style="fill:#000000;stroke-width:0" /></g>  <path
     style="fill:none;fill-rule:evenodd;stroke:#666666;stroke-width:0.80000001;stroke-linecap:butt;stroke-linejoin:miter;stroke-miterlimit:4;stroke-dasharray:0.8, 1.6;stroke-dashoffset:0;stroke-opacity:1;marker-start:url(#Arrow2Lstart)"
     d="m 173.94871,114.14996 0,50.30715"
     id="path3768"
     inkscape:connector-curvature="0"
     sodipodi:nodetypes="cc" />
  <path
     style="fill:none;fill-rule:evenodd;stroke:#666666;stroke-width:0.80000001;stroke-linecap:butt;stroke-linejoin:miter;stroke-miterlimit:4;stroke-dasharray:0.8, 1.6;stroke-dashoffset:0;stroke-opacity:1;marker-start:url(#Arrow2Lstart-3)"
     d="m 154.3388,110.70522 18.90739,0"
     id="path3768-7"
     inkscape:connector-curvature="0"
     sodipodi:nodetypes="cc" />
  <path
     style="fill:none;fill-rule:evenodd;stroke:#666666;stroke-width:0.80000001;stroke-linecap:butt;stroke-linejoin:miter;stroke-miterlimit:4;stroke-dasharray:0.8, 1.6;stroke-dashoffset:0;stroke-opacity:1;marker-start:url(#Arrow2Lstart-5)"
     d="m 153.36726,163.03817 0,-50.64477"
     id="path3768-5"
     inkscape:connector-curvature="0"
     sodipodi:nodetypes="cc" />
  <path
     style="fill:none;fill-rule:evenodd;stroke:#666666;stroke-width:0.40000001;stroke-linecap:butt;stroke-linejoin:miter;stroke-miterlimit:4;stroke-dasharray:0.8, 0.8;stroke-dashoffset:0;stroke-opacity:1"
     d="m 73.402872,110.68455 75.291898,0"
     id="path3768-7-9"
     inkscape:connector-curvature="0"
     sodipodi:nodetypes="cc" />
</svg>
